<svg width="20" height="18" viewBox="0 0 20 18" fill="none" xmlns="http://www.w3.org/2000/svg">
<path d="M9.66378 17.9373C9.77092 17.9787 9.8854 18 10.0001 18C10.1128 18 10.2291 17.9787 10.3364 17.9373C10.7309 17.7813 20 14.0398 20 5.38327C20 2.41532 17.5528 0 14.5455 0C12.6509 0 10.9781 0.958224 10.0001 2.41174C9.02186 0.958224 7.34912 0 5.45455 0C2.44741 0 0 2.41532 0 5.38327C0 14.0398 9.2691 17.7813 9.66378 17.9373ZM5.45455 1.79445C7.45826 1.79445 9.09091 3.40406 9.09091 5.38327C9.09091 5.87854 9.49829 6.2806 10.0001 6.2806C10.5019 6.2806 10.9091 5.87854 10.9091 5.38327C10.9091 3.40406 12.5399 1.79445 14.5455 1.79445C16.5492 1.79445 18.1818 3.40406 18.1818 5.38327C18.1818 11.9583 11.5782 15.3946 9.99833 16.1214C8.41647 15.3981 1.81818 11.9778 1.81818 5.38327C1.81818 3.40406 3.44904 1.79445 5.45455 1.79445Z" fill="#FF0000"/>
</svg>
