<svg width="401" height="328" viewBox="0 0 401 328" fill="none" xmlns="http://www.w3.org/2000/svg">
<path d="M90 10.5L70.5 12.5L65 8L90 10.5Z" fill="white"/>
<path d="M72.9693 11.5C69.9693 11.5 28.5377 4.43481 28.9693 11.5V45.5L52.9693 96.5L37.9693 134C41.0597 133.284 16.9496 168.054 22.9693 197C28.9891 225.946 42.5954 239.298 37.9693 237.5L72.9693 283.5C102.035 304.886 119.616 312.378 152.469 320.5L211.469 324.5L252.969 319.5L306.469 300.5L352.469 262.5L373.969 218V174V152.5L365.469 134L352.469 112L340.469 96.5L352.469 90L373.969 40V6H340.469L306.469 11.5L263.969 28L225.469 21.5C238.959 17.5524 166.969 17 178.469 21.5C189.969 26 164.469 17.5 156.969 21.5C149.469 25.5 145.553 28.8228 135.969 28L124.469 21.5C111.709 14.021 104.216 11.1597 89.4693 11.5C83.0257 8.84055 75.9693 11.5 72.9693 11.5Z" fill="white"/>
<path d="M398.735 205.635C392.27 202.402 385.903 199.602 379.691 197.153C380.27 191.782 380.58 186.296 380.58 180.68C380.58 168.354 378.499 155.995 374.605 143.661C382.866 140.037 391.143 135.873 399.029 131.09C400.955 129.923 401.568 127.408 400.4 125.474C399.208 123.547 396.694 122.951 394.784 124.102C387.462 128.559 379.707 132.461 371.936 135.882C366.752 122.315 359.299 108.797 349.463 95.4012C359.61 86.4219 380.278 61.2554 380.278 5.29789C380.278 3.09387 378.54 1.29801 376.336 1.21638C372.556 1.09393 285.326 -1.73047 260.739 24.8157C246.748 20.2933 232.822 18.522 222.079 17.4853C219.875 17.3465 217.843 18.9138 217.622 21.1586C217.41 23.3953 219.051 25.3952 221.295 25.6156C237.826 27.2074 249.621 29.5502 260.731 33.4276C270.355 36.7908 281.343 42.1947 293.383 49.4843C294.036 49.8843 294.771 50.072 295.497 50.072C296.705 50.072 297.914 49.5333 298.714 48.5129C300.697 45.9905 303.04 43.5743 306.085 40.905C307.791 39.4193 307.962 36.8479 306.485 35.15C304.999 33.4276 302.42 33.2644 300.73 34.7501C298.371 36.799 296.379 38.7418 294.616 40.7009C285.465 35.3133 277.131 31.142 269.31 27.9747C281.62 17.7465 307.889 12.865 332.37 10.7181C327.374 12.7181 322.321 15.0935 317.415 18.0322C315.489 19.1913 314.844 21.6892 316.011 23.632C316.77 24.9055 318.125 25.6156 319.513 25.6156C320.231 25.6156 320.95 25.436 321.611 25.0361C340.941 13.4854 362.883 10.4488 372.066 9.65694C370.948 65.3532 348.443 86.2668 341.431 91.4177C340.549 92.0707 339.961 93.0422 339.806 94.1278C339.651 95.2135 339.945 96.3155 340.606 97.189C351.185 111.058 359.153 125.033 364.467 139.016C332.729 151.759 302.803 156.518 302.411 156.575C300.191 156.918 298.656 159.007 298.999 161.228C299.309 163.244 301.048 164.689 303.024 164.689C303.228 164.689 303.448 164.673 303.652 164.64C305.293 164.387 334.982 159.693 367.062 146.82C370.564 158.142 372.417 169.44 372.417 180.68C372.417 185.268 372.124 189.741 371.707 194.166C333.855 180.754 304.093 180.729 303.024 180.664C300.771 180.672 298.942 182.509 298.95 184.754C298.958 187.007 300.787 188.827 303.032 188.827H303.04H303.048C303.636 188.827 333.39 189.023 370.556 202.467C359.471 273.241 294.24 319.452 200.994 319.452C107.748 319.452 42.5173 273.241 31.4319 202.459C68.6389 189.015 98.4829 188.819 98.9482 188.819H98.9564C101.209 188.819 103.038 186.99 103.046 184.745C103.046 182.501 101.226 180.664 98.9727 180.656C97.3074 180.599 67.8716 180.746 30.2809 194.133C29.8646 189.717 29.5707 185.26 29.5707 180.68C29.5707 169.619 31.5135 158.346 35.1706 146.926C67.1614 159.718 96.6952 164.395 98.336 164.648C98.5482 164.681 98.7523 164.697 98.9645 164.697C100.948 164.697 102.687 163.252 102.997 161.236C103.34 159.007 101.813 156.926 99.5849 156.583C99.1931 156.526 69.4716 151.808 37.8644 139.163C43.1785 125.523 51.0231 111.686 61.4228 97.744C62.133 96.789 62.3942 95.5564 62.1248 94.3972C61.8555 93.2299 61.0881 92.234 60.0351 91.6871C59.7331 91.5238 30.8605 75.6957 29.6279 9.64877C38.7704 10.4161 61.1943 13.4201 80.6222 25.0442C81.2834 25.4442 82.0018 25.6238 82.712 25.6238C84.0997 25.6238 85.4547 24.9136 86.2221 23.6402C87.3812 21.7055 86.7445 19.1995 84.818 18.0404C79.2019 14.6854 73.3653 12.016 67.643 9.86101C93.0382 11.6324 120.809 16.4731 133.241 27.8686C125.584 30.9706 117.38 35.0929 107.952 40.6601C106.042 38.5295 103.895 36.6275 101.805 34.7664C100.116 33.2725 97.5278 33.4195 96.0422 35.1092C94.5483 36.799 94.7034 39.3785 96.385 40.8723C99.1768 43.3539 101.813 45.6885 103.658 48.317C104.45 49.4516 105.715 50.0639 107.005 50.0639C107.723 50.0639 108.458 49.8761 109.111 49.4761C121.723 41.8355 132.025 36.7337 141.51 33.4195C152.612 29.5339 164.416 27.1993 180.97 25.6075C183.215 25.3871 184.864 23.3953 184.644 21.1505C184.431 18.9056 182.415 17.3465 180.195 17.4771C169.46 18.5138 155.559 20.2852 141.616 24.7748C117.135 -3.68143 29.1054 0.987813 25.2688 1.21638C23.0975 1.34699 21.4077 3.14285 21.4077 5.29789C21.4077 65.5981 43.2356 89.0994 52.3619 96.2829C42.7948 109.613 35.5134 122.886 30.3707 136.029C22.4934 132.576 14.6242 128.617 7.1959 124.102C5.26943 122.943 2.76338 123.555 1.58791 125.474C0.412437 127.4 1.03282 129.914 2.95113 131.09C10.9101 135.931 19.2772 140.118 27.6198 143.767C23.5709 156.216 21.4077 168.542 21.4077 180.68C21.4077 186.288 21.7179 191.782 22.2975 197.145C16.0936 199.602 9.72644 202.402 3.25317 205.643C1.2369 206.655 0.4206 209.104 1.42465 211.12C2.15116 212.541 3.58785 213.373 5.08168 213.373C5.69391 213.373 6.31429 213.234 6.90203 212.941C12.559 210.108 18.1425 207.635 23.6199 205.431C36.0032 279.42 104.05 327.615 200.994 327.615C297.946 327.615 365.985 279.42 378.36 205.431C383.837 207.635 389.421 210.108 395.078 212.941C395.658 213.234 396.286 213.373 396.906 213.373C398.4 213.373 399.837 212.549 400.555 211.12C401.559 209.096 400.751 206.647 398.735 205.635Z" fill="black"/>
<path d="M169.207 175.08C124.645 182.443 94.8748 204.124 94.8748 229.569C94.8748 261.608 141.486 286.71 200.994 286.71C260.502 286.71 307.113 261.608 307.113 229.569C307.113 204.124 277.343 182.443 232.781 175.08C231.336 170.656 228.038 167.57 222.806 165.954C217.271 164.24 210.251 164.232 202.219 164.248H199.778C191.77 164.281 184.717 164.24 179.191 165.954C173.95 167.562 170.644 170.656 169.207 175.08ZM298.95 229.569C298.95 256.115 254.094 278.547 200.994 278.547C147.894 278.547 103.038 256.115 103.038 229.569C103.038 208.949 129.78 190.345 168.595 183.456C170.75 197.463 187.909 208.949 196.913 212.238V229.675C181.011 229.095 167.379 225.316 157.665 221.618C157.461 221.504 157.24 221.446 157.02 221.365C147.657 217.74 142.073 214.287 141.959 214.214C140.049 213.022 137.527 213.585 136.327 215.479C135.127 217.381 135.682 219.904 137.584 221.112C138.065 221.414 143.486 224.793 152.555 228.442C155.942 237.193 168.481 262.221 201.076 262.221C233.483 262.221 246.021 237.258 249.425 228.475C258.56 224.818 264.037 221.422 264.519 221.12C266.421 219.92 267 217.398 265.792 215.496C264.608 213.602 262.094 213.03 260.168 214.222C260.053 214.296 254.462 217.724 245.107 221.34C244.829 221.43 244.56 221.503 244.307 221.65C234.569 225.34 220.936 229.103 205.076 229.675V212.287C214.153 209.096 231.287 197.774 233.393 183.456C272.208 190.345 298.95 208.949 298.95 229.569ZM200.994 237.944C215.492 237.944 228.283 235.389 238.552 232.271C233.279 241.429 222.193 254.058 201.076 254.058C179.836 254.058 168.709 241.413 163.428 232.254C173.681 235.381 186.472 237.944 200.994 237.944ZM198.61 172.403H199.77H202.219C209.394 172.395 216.047 172.395 220.389 173.742C224.104 174.893 225.483 176.738 225.483 180.566C225.483 192.982 204.823 204.598 201.157 205.063C197.059 204.524 176.505 193.006 176.505 180.566C176.505 176.738 177.885 174.893 181.599 173.742C185.705 172.468 191.933 172.403 198.61 172.403Z" fill="black"/>
<path d="M260.707 164.232C261.188 164.42 261.702 164.517 262.217 164.517C262.723 164.517 263.245 164.42 263.727 164.232C265.498 163.522 307.113 146.502 307.113 107.123C307.113 93.6217 296.126 82.6343 282.624 82.6343C274.118 82.6343 266.608 86.9933 262.217 93.6054C257.825 86.9933 250.315 82.6343 241.809 82.6343C228.308 82.6343 217.32 93.6217 217.32 107.123C217.32 146.502 258.935 163.522 260.707 164.232ZM241.809 90.7973C250.805 90.7973 258.135 98.1195 258.135 107.123C258.135 109.376 259.964 111.205 262.217 111.205C264.47 111.205 266.298 109.376 266.298 107.123C266.298 98.1195 273.62 90.7973 282.624 90.7973C291.62 90.7973 298.95 98.1195 298.95 107.123C298.95 137.033 269.302 152.665 262.209 155.971C255.107 152.681 225.483 137.122 225.483 107.123C225.483 98.1195 232.805 90.7973 241.809 90.7973Z" fill="#FF0000"/>
<path d="M160.179 82.6343C151.665 82.6343 144.163 86.9933 139.771 93.6054C135.38 86.9933 127.87 82.6343 119.364 82.6343C105.862 82.6343 94.8748 93.6217 94.8748 107.123C94.8748 146.502 136.49 163.522 138.261 164.232C138.751 164.42 139.257 164.517 139.771 164.517C140.286 164.517 140.792 164.42 141.282 164.232C143.053 163.522 184.668 146.502 184.668 107.123C184.668 93.6217 173.681 82.6343 160.179 82.6343ZM139.763 155.971C132.661 152.681 103.038 137.122 103.038 107.123C103.038 98.1195 110.36 90.7973 119.364 90.7973C128.368 90.7973 135.69 98.1195 135.69 107.123C135.69 109.376 137.518 111.205 139.771 111.205C142.024 111.205 143.853 109.376 143.853 107.123C143.853 98.1195 151.175 90.7973 160.179 90.7973C169.183 90.7973 176.505 98.1195 176.505 107.123C176.505 137.033 146.865 152.665 139.763 155.971Z" fill="#FF0000"/>
<path d="M200.994 25.583C202.365 25.583 203.745 25.5993 205.125 25.632H205.214C207.426 25.632 209.247 23.8606 209.296 21.6484C209.353 19.3954 207.565 17.5261 205.312 17.4689C203.867 17.4363 202.431 17.42 201.002 17.42L197.092 17.4526C194.839 17.4934 193.043 19.3546 193.084 21.6157C193.125 23.8606 194.929 25.5585 197.239 25.6156L200.994 25.583Z" fill="black"/>
</svg>
