<svg width="727" height="376" viewBox="0 0 727 376" fill="none" xmlns="http://www.w3.org/2000/svg">
<g clip-path="url(#clip0)">
<path d="M223.761 108.264C217.784 108.264 212.919 113.125 212.919 119.102C212.919 125.079 217.784 129.941 223.761 129.941C229.738 129.941 234.603 125.079 234.603 119.102C234.604 113.125 229.739 108.264 223.761 108.264Z" fill="black"/>
<path d="M285.517 4.50213C283.192 4.02601 280.838 5.25897 279.909 7.44666L265.431 41.4695C264.744 41.4108 264.062 41.3811 263.383 41.3811H81.9998C81.9311 41.3811 81.8594 41.3811 81.7908 41.3811L65.474 3.04841C64.5478 0.857021 62.1969 -0.378419 59.8657 0.103885C57.534 0.580006 55.8583 2.63103 55.8583 5.01164V181.993C55.8583 196.409 67.5875 208.135 81.9998 208.135H146.579C132.806 216.606 123.457 231.521 122.746 248.669C117.825 253.772 97.227 273.376 70.4238 274.4C52.4957 275.075 35.2299 267.315 18.9948 251.31C17.0254 249.367 13.8557 249.393 11.9123 251.363C9.97567 253.332 9.99855 256.505 11.968 258.445C30.2479 276.467 50.1287 285.17 70.8085 284.41C93.8261 283.533 112.37 271.155 122.642 262.466V294.992C122.642 297.76 124.888 300.001 127.65 300.001C130.416 300.001 132.659 297.76 132.659 294.992V250.746C132.659 235.404 141.349 222.068 154.05 215.348V294.985C154.05 297.754 156.293 299.994 159.059 299.994C161.824 299.994 164.068 297.754 164.068 294.985V211.672C166.849 211.059 169.728 210.71 172.692 210.71C176.661 210.71 180.483 211.314 184.102 212.386V294.982C184.102 297.75 186.345 299.99 189.11 299.99C191.875 299.99 194.119 297.75 194.119 294.982V216.987C205.284 224.103 212.725 236.558 212.725 250.746V294.985C212.725 297.754 214.969 299.994 217.734 299.994C220.499 299.994 222.743 297.754 222.743 294.985V250.746C222.743 232.727 213.136 216.945 198.805 208.132H263.384C277.8 208.132 289.526 196.405 289.526 181.99V9.40988C289.525 7.02928 287.848 4.98196 285.517 4.50213ZM121.621 139.958C110.121 139.958 100.762 130.603 100.762 119.103C100.762 107.602 110.121 98.2466 121.621 98.2466C133.122 98.2466 142.48 107.601 142.48 119.103C142.48 130.603 133.125 139.958 121.621 139.958ZM174.084 193.875C163.037 193.875 154.05 184.892 154.05 173.841C154.05 171.073 156.293 168.832 159.059 168.832C161.824 168.832 164.068 171.073 164.068 173.841C164.068 177.597 166.171 180.838 169.236 182.554C169.145 182.166 169.075 181.771 169.075 181.354V165.386L158.687 164.617C155.931 164.411 153.864 162.008 154.063 159.249C154.271 156.487 156.688 154.44 159.43 154.625L174.084 155.711L188.737 154.625C191.558 154.472 193.905 156.494 194.105 159.249C194.304 162.008 192.24 164.411 189.481 164.617L179.092 165.386V181.354C179.092 181.772 179.027 182.166 178.932 182.554C181.998 180.839 184.1 177.597 184.1 173.841C184.1 171.073 186.344 168.832 189.109 168.832C191.874 168.832 194.118 171.073 194.118 173.841C194.118 184.892 185.134 193.875 174.084 193.875ZM223.761 139.958C212.263 139.958 202.902 130.603 202.902 119.103C202.902 107.602 212.264 98.2466 223.761 98.2466C235.262 98.2466 244.62 107.601 244.62 119.103C244.621 130.603 235.262 139.958 223.761 139.958Z" fill="black"/>
<path d="M121.621 108.264C115.644 108.264 110.779 113.125 110.779 119.102C110.779 125.079 115.644 129.941 121.621 129.941C127.599 129.941 132.463 125.079 132.463 119.102C132.463 113.125 127.598 108.264 121.621 108.264Z" fill="black"/>
</g>
<path d="M374.819 154.021C374.819 149.871 373.354 146.697 370.425 144.5C367.495 142.254 362.222 139.91 354.604 137.469C346.987 134.979 340.957 132.537 336.514 130.145C324.404 123.602 318.35 114.788 318.35 103.704C318.35 97.9424 319.961 92.8154 323.184 88.3232C326.455 83.7822 331.118 80.2422 337.173 77.7031C343.276 75.1641 350.112 73.8945 357.681 73.8945C365.298 73.8945 372.085 75.2861 378.042 78.0693C383.999 80.8037 388.613 84.6855 391.885 89.7148C395.205 94.7441 396.865 100.457 396.865 106.854H374.893C374.893 101.971 373.354 98.1865 370.278 95.501C367.202 92.7666 362.881 91.3994 357.314 91.3994C351.943 91.3994 347.769 92.5469 344.79 94.8418C341.812 97.0879 340.322 100.066 340.322 103.777C340.322 107.244 342.056 110.149 345.522 112.493C349.038 114.837 354.189 117.034 360.977 119.085C373.477 122.845 382.583 127.508 388.296 133.074C394.009 138.641 396.865 145.574 396.865 153.875C396.865 163.104 393.374 170.354 386.392 175.628C379.409 180.853 370.01 183.465 358.193 183.465C349.99 183.465 342.52 181.976 335.781 178.997C329.043 175.97 323.892 171.844 320.327 166.619C316.812 161.395 315.054 155.34 315.054 148.455H337.1C337.1 160.223 344.131 166.106 358.193 166.106C363.418 166.106 367.495 165.057 370.425 162.957C373.354 160.809 374.819 157.83 374.819 154.021ZM481.753 143.108C481.753 155.315 478.97 165.105 473.403 172.479C467.886 179.803 460.415 183.465 450.991 183.465C442.983 183.465 436.514 180.682 431.582 175.115V212.469H410.415V102.752H430.044L430.776 110.516C435.903 104.363 442.593 101.287 450.845 101.287C460.61 101.287 468.203 104.9 473.623 112.127C479.043 119.354 481.753 129.314 481.753 142.01V143.108ZM460.586 141.57C460.586 134.197 459.268 128.509 456.631 124.505C454.043 120.501 450.259 118.499 445.278 118.499C438.638 118.499 434.072 121.038 431.582 126.116V158.562C434.17 163.787 438.784 166.399 445.425 166.399C455.532 166.399 460.586 158.123 460.586 141.57ZM540.859 182C539.883 180.096 539.175 177.728 538.735 174.896C533.608 180.608 526.943 183.465 518.74 183.465C510.977 183.465 504.531 181.219 499.404 176.727C494.326 172.234 491.787 166.57 491.787 159.734C491.787 151.336 494.888 144.891 501.089 140.398C507.339 135.906 516.348 133.636 528.115 133.587H537.856V129.046C537.856 125.384 536.904 122.454 535 120.257C533.145 118.06 530.19 116.961 526.138 116.961C522.573 116.961 519.766 117.815 517.715 119.524C515.713 121.233 514.712 123.577 514.712 126.556H493.545C493.545 121.966 494.961 117.718 497.793 113.812C500.625 109.905 504.629 106.854 509.805 104.656C514.98 102.41 520.791 101.287 527.236 101.287C537.002 101.287 544.741 103.753 550.454 108.685C556.216 113.567 559.097 120.452 559.097 129.339V163.689C559.146 171.209 560.195 176.897 562.246 180.755V182H540.859ZM523.354 167.278C526.479 167.278 529.36 166.595 531.997 165.228C534.634 163.812 536.587 161.932 537.856 159.588V145.965H529.946C519.351 145.965 513.711 149.627 513.027 156.951L512.954 158.196C512.954 160.833 513.882 163.006 515.737 164.715C517.593 166.424 520.132 167.278 523.354 167.278ZM608.315 166.399C612.222 166.399 615.396 165.325 617.837 163.177C620.278 161.028 621.548 158.172 621.646 154.607H641.494C641.445 159.979 639.98 164.91 637.1 169.402C634.219 173.846 630.264 177.312 625.234 179.803C620.254 182.244 614.736 183.465 608.682 183.465C597.354 183.465 588.418 179.876 581.875 172.698C575.332 165.472 572.061 155.511 572.061 142.815V141.424C572.061 129.217 575.308 119.476 581.802 112.2C588.296 104.925 597.207 101.287 608.535 101.287C618.447 101.287 626.382 104.119 632.339 109.783C638.345 115.398 641.396 122.894 641.494 132.269H621.646C621.548 128.167 620.278 124.847 617.837 122.308C615.396 119.72 612.173 118.426 608.169 118.426C603.237 118.426 599.502 120.232 596.963 123.846C594.473 127.41 593.228 133.221 593.228 141.277V143.475C593.228 151.629 594.473 157.488 596.963 161.053C599.453 164.617 603.237 166.399 608.315 166.399ZM690.054 183.465C678.433 183.465 668.96 179.9 661.636 172.771C654.36 165.643 650.723 156.146 650.723 144.28V142.229C650.723 134.271 652.261 127.166 655.337 120.916C658.413 114.617 662.759 109.783 668.374 106.414C674.038 102.996 680.483 101.287 687.71 101.287C698.55 101.287 707.07 104.705 713.271 111.541C719.521 118.377 722.646 128.069 722.646 140.618V149.261H672.183C672.866 154.437 674.917 158.587 678.335 161.712C681.802 164.837 686.172 166.399 691.445 166.399C699.6 166.399 705.972 163.445 710.562 157.537L720.962 169.183C717.788 173.675 713.491 177.19 708.071 179.729C702.651 182.22 696.646 183.465 690.054 183.465ZM687.637 118.426C683.438 118.426 680.02 119.842 677.383 122.674C674.795 125.506 673.135 129.559 672.402 134.832H701.846V133.147C701.748 128.46 700.479 124.847 698.037 122.308C695.596 119.72 692.129 118.426 687.637 118.426Z" fill="black"/>
<path d="M336.237 303.478C335.407 314.952 331.159 323.985 323.493 330.577C315.876 337.169 305.817 340.465 293.317 340.465C279.646 340.465 268.879 335.875 261.018 326.695C253.205 317.467 249.299 304.82 249.299 288.756V282.237C249.299 271.983 251.105 262.95 254.719 255.138C258.332 247.325 263.483 241.344 270.173 237.193C276.911 232.994 284.724 230.895 293.61 230.895C305.915 230.895 315.827 234.19 323.347 240.782C330.866 247.374 335.212 256.627 336.384 268.541H314.411C313.874 261.656 311.945 256.676 308.625 253.6C305.354 250.475 300.349 248.912 293.61 248.912C286.286 248.912 280.793 251.549 277.131 256.822C273.518 262.047 271.662 270.177 271.564 281.212V289.269C271.564 300.792 273.298 309.215 276.765 314.537C280.28 319.859 285.798 322.521 293.317 322.521C300.104 322.521 305.158 320.982 308.479 317.906C311.848 314.781 313.776 309.972 314.265 303.478H336.237ZM395.197 339C394.221 337.096 393.513 334.728 393.073 331.896C387.946 337.608 381.281 340.465 373.078 340.465C365.314 340.465 358.869 338.219 353.742 333.727C348.664 329.234 346.125 323.57 346.125 316.734C346.125 308.336 349.226 301.891 355.427 297.398C361.677 292.906 370.686 290.636 382.453 290.587H392.194V286.046C392.194 282.384 391.242 279.454 389.338 277.257C387.482 275.06 384.528 273.961 380.476 273.961C376.911 273.961 374.104 274.815 372.053 276.524C370.051 278.233 369.05 280.577 369.05 283.556H347.883C347.883 278.966 349.299 274.718 352.131 270.812C354.963 266.905 358.967 263.854 364.143 261.656C369.318 259.41 375.129 258.287 381.574 258.287C391.34 258.287 399.079 260.753 404.792 265.685C410.554 270.567 413.435 277.452 413.435 286.339V320.689C413.483 328.209 414.533 333.897 416.584 337.755V339H395.197ZM377.692 324.278C380.817 324.278 383.698 323.595 386.335 322.228C388.972 320.812 390.925 318.932 392.194 316.588V302.965H384.284C373.688 302.965 368.049 306.627 367.365 313.951L367.292 315.196C367.292 317.833 368.22 320.006 370.075 321.715C371.931 323.424 374.47 324.278 377.692 324.278ZM455.036 240.27V259.752H468.586V275.279H455.036V314.83C455.036 317.76 455.598 319.859 456.721 321.129C457.844 322.398 459.992 323.033 463.166 323.033C465.51 323.033 467.585 322.862 469.392 322.521V338.561C465.241 339.83 460.969 340.465 456.574 340.465C441.73 340.465 434.162 332.97 433.869 317.979V275.279H422.297V259.752H433.869V240.27H455.036ZM523.298 317.101C523.298 314.513 522.004 312.486 519.416 311.021C516.877 309.508 512.775 308.165 507.111 306.993C488.264 303.038 478.84 295.03 478.84 282.97C478.84 275.938 481.745 270.079 487.556 265.392C493.415 260.655 501.057 258.287 510.48 258.287C520.539 258.287 528.571 260.655 534.577 265.392C540.632 270.128 543.659 276.28 543.659 283.849H522.492C522.492 280.821 521.516 278.331 519.562 276.378C517.609 274.376 514.558 273.375 510.407 273.375C506.843 273.375 504.084 274.181 502.131 275.792C500.178 277.403 499.201 279.454 499.201 281.944C499.201 284.288 500.3 286.192 502.497 287.657C504.743 289.073 508.503 290.318 513.776 291.393C519.05 292.418 523.493 293.59 527.106 294.908C538.288 299.01 543.879 306.114 543.879 316.222C543.879 323.448 540.778 329.308 534.577 333.8C528.376 338.243 520.368 340.465 510.554 340.465C503.913 340.465 498.005 339.293 492.829 336.949C487.702 334.557 483.674 331.31 480.744 327.208C477.814 323.058 476.35 318.59 476.35 313.805H496.418C496.613 317.564 498.005 320.445 500.593 322.447C503.181 324.449 506.647 325.45 510.993 325.45C515.046 325.45 518.098 324.693 520.148 323.18C522.248 321.617 523.298 319.591 523.298 317.101Z" fill="black"/>
<defs>
<clipPath id="clip0">
<rect width="300" height="300" fill="white"/>
</clipPath>
</defs>
</svg>
