<svg width="432" height="391" viewBox="0 0 432 391" fill="none" xmlns="http://www.w3.org/2000/svg">
<g clip-path="url(#clip0)">
<path d="M240.881 54.1319C237.892 54.1319 235.46 56.5625 235.46 59.551C235.46 62.5397 237.892 64.9704 240.881 64.9704C243.869 64.9704 246.302 62.5394 246.302 59.551C246.302 56.5625 243.869 54.1319 240.881 54.1319Z" fill="black"/>
<path d="M271.759 2.25107C270.596 2.01301 269.419 2.6295 268.954 3.72334L261.716 20.7348C261.372 20.7054 261.031 20.6906 260.692 20.6906H170C169.966 20.6906 169.93 20.6906 169.895 20.6906L161.737 1.52421C161.274 0.428518 160.098 -0.189202 158.933 0.05195C157.767 0.29001 156.929 1.31553 156.929 2.50583V90.9966C156.929 98.2046 162.794 104.067 170 104.067H202.29C195.403 108.303 190.728 115.76 190.373 124.335C187.913 126.886 177.613 136.688 164.212 137.2C155.248 137.538 146.615 133.657 138.497 125.655C137.513 124.683 135.928 124.696 134.956 125.681C133.988 126.666 133.999 128.252 134.984 129.223C144.124 138.234 154.064 142.585 164.404 142.205C175.913 141.767 185.185 135.578 190.321 131.233V147.496C190.321 148.88 191.444 150 192.825 150C194.208 150 195.329 148.88 195.329 147.496V125.373C195.329 117.702 199.675 111.034 206.025 107.674V147.493C206.025 148.877 207.147 149.997 208.529 149.997C209.912 149.997 211.034 148.877 211.034 147.493V105.836C212.424 105.53 213.864 105.355 215.346 105.355C217.33 105.355 219.241 105.657 221.051 106.193V147.491C221.051 148.875 222.173 149.995 223.555 149.995C224.938 149.995 226.059 148.875 226.059 147.491V108.494C231.642 112.051 235.363 118.279 235.363 125.373V147.493C235.363 148.877 236.484 149.997 237.867 149.997C239.249 149.997 240.371 148.877 240.371 147.493V125.373C240.371 116.364 235.568 108.473 228.403 104.066H260.692C267.9 104.066 273.763 98.2027 273.763 90.9951V4.70495C273.762 3.51465 272.924 2.49099 271.759 2.25107ZM189.811 69.9793C184.06 69.9793 179.381 65.3015 179.381 59.5513C179.381 53.801 184.06 49.1233 189.811 49.1233C195.561 49.1233 200.24 53.8007 200.24 59.5513C200.24 65.3015 195.563 69.9793 189.811 69.9793ZM216.042 96.9376C210.518 96.9376 206.025 92.446 206.025 86.9205C206.025 85.5364 207.147 84.4162 208.529 84.4162C209.912 84.4162 211.034 85.5364 211.034 86.9205C211.034 88.7987 212.085 90.4191 213.618 91.277C213.572 91.0829 213.538 90.8856 213.538 90.6772V82.6932L208.343 82.3086C206.966 82.2057 205.932 81.0042 206.031 79.6247C206.136 78.2437 207.344 77.22 208.715 77.3128L216.042 77.8557L223.369 77.3128C224.779 77.2361 225.953 78.2468 226.053 79.6247C226.152 81.0042 225.12 82.2057 223.741 82.3086L218.546 82.6932V90.6772C218.546 90.8859 218.513 91.0829 218.466 91.277C219.999 90.4194 221.05 88.7987 221.05 86.9205C221.05 85.5364 222.172 84.4162 223.554 84.4162C224.937 84.4162 226.059 85.5364 226.059 86.9205C226.059 92.446 221.567 96.9376 216.042 96.9376ZM240.881 69.9793C235.132 69.9793 230.451 65.3015 230.451 59.5513C230.451 53.801 235.132 49.1233 240.881 49.1233C246.631 49.1233 251.31 53.8007 251.31 59.5513C251.31 65.3015 246.631 69.9793 240.881 69.9793Z" fill="black"/>
<path d="M189.811 54.1319C186.822 54.1319 184.39 56.5625 184.39 59.551C184.39 62.5397 186.822 64.9704 189.811 64.9704C192.799 64.9704 195.231 62.5394 195.231 59.551C195.231 56.5625 192.799 54.1319 189.811 54.1319Z" fill="black"/>
</g>
<path d="M64.8193 212.021C64.8193 207.871 63.3545 204.697 60.4248 202.5C57.4951 200.254 52.2217 197.91 44.6045 195.469C36.9873 192.979 30.957 190.537 26.5137 188.145C14.4043 181.602 8.34961 172.788 8.34961 161.704C8.34961 155.942 9.96094 150.815 13.1836 146.323C16.4551 141.782 21.1182 138.242 27.1729 135.703C33.2764 133.164 40.1123 131.895 47.6807 131.895C55.2979 131.895 62.085 133.286 68.042 136.069C73.999 138.804 78.6133 142.686 81.8848 147.715C85.2051 152.744 86.8652 158.457 86.8652 164.854H64.8926C64.8926 159.971 63.3545 156.187 60.2783 153.501C57.2021 150.767 52.8809 149.399 47.3145 149.399C41.9434 149.399 37.7686 150.547 34.79 152.842C31.8115 155.088 30.3223 158.066 30.3223 161.777C30.3223 165.244 32.0557 168.149 35.5225 170.493C39.0381 172.837 44.1895 175.034 50.9766 177.085C63.4766 180.845 72.583 185.508 78.2959 191.074C84.0088 196.641 86.8652 203.574 86.8652 211.875C86.8652 221.104 83.374 228.354 76.3916 233.628C69.4092 238.853 60.0098 241.465 48.1934 241.465C39.9902 241.465 32.5195 239.976 25.7812 236.997C19.043 233.97 13.8916 229.844 10.3271 224.619C6.81152 219.395 5.05371 213.34 5.05371 206.455H27.0996C27.0996 218.223 34.1309 224.106 48.1934 224.106C53.418 224.106 57.4951 223.057 60.4248 220.957C63.3545 218.809 64.8193 215.83 64.8193 212.021ZM171.753 201.108C171.753 213.315 168.97 223.105 163.403 230.479C157.886 237.803 150.415 241.465 140.991 241.465C132.983 241.465 126.514 238.682 121.582 233.115V270.469H100.415V160.752H120.044L120.776 168.516C125.903 162.363 132.593 159.287 140.845 159.287C150.61 159.287 158.203 162.9 163.623 170.127C169.043 177.354 171.753 187.314 171.753 200.01V201.108ZM150.586 199.57C150.586 192.197 149.268 186.509 146.631 182.505C144.043 178.501 140.259 176.499 135.278 176.499C128.638 176.499 124.072 179.038 121.582 184.116V216.562C124.17 221.787 128.784 224.399 135.425 224.399C145.532 224.399 150.586 216.123 150.586 199.57ZM230.859 240C229.883 238.096 229.175 235.728 228.735 232.896C223.608 238.608 216.943 241.465 208.74 241.465C200.977 241.465 194.531 239.219 189.404 234.727C184.326 230.234 181.787 224.57 181.787 217.734C181.787 209.336 184.888 202.891 191.089 198.398C197.339 193.906 206.348 191.636 218.115 191.587H227.856V187.046C227.856 183.384 226.904 180.454 225 178.257C223.145 176.06 220.19 174.961 216.138 174.961C212.573 174.961 209.766 175.815 207.715 177.524C205.713 179.233 204.712 181.577 204.712 184.556H183.545C183.545 179.966 184.961 175.718 187.793 171.812C190.625 167.905 194.629 164.854 199.805 162.656C204.98 160.41 210.791 159.287 217.236 159.287C227.002 159.287 234.741 161.753 240.454 166.685C246.216 171.567 249.097 178.452 249.097 187.339V221.689C249.146 229.209 250.195 234.897 252.246 238.755V240H230.859ZM213.354 225.278C216.479 225.278 219.36 224.595 221.997 223.228C224.634 221.812 226.587 219.932 227.856 217.588V203.965H219.946C209.351 203.965 203.711 207.627 203.027 214.951L202.954 216.196C202.954 218.833 203.882 221.006 205.737 222.715C207.593 224.424 210.132 225.278 213.354 225.278ZM298.315 224.399C302.222 224.399 305.396 223.325 307.837 221.177C310.278 219.028 311.548 216.172 311.646 212.607H331.494C331.445 217.979 329.98 222.91 327.1 227.402C324.219 231.846 320.264 235.312 315.234 237.803C310.254 240.244 304.736 241.465 298.682 241.465C287.354 241.465 278.418 237.876 271.875 230.698C265.332 223.472 262.061 213.511 262.061 200.815V199.424C262.061 187.217 265.308 177.476 271.802 170.2C278.296 162.925 287.207 159.287 298.535 159.287C308.447 159.287 316.382 162.119 322.339 167.783C328.345 173.398 331.396 180.894 331.494 190.269H311.646C311.548 186.167 310.278 182.847 307.837 180.308C305.396 177.72 302.173 176.426 298.169 176.426C293.237 176.426 289.502 178.232 286.963 181.846C284.473 185.41 283.228 191.221 283.228 199.277V201.475C283.228 209.629 284.473 215.488 286.963 219.053C289.453 222.617 293.237 224.399 298.315 224.399ZM380.054 241.465C368.433 241.465 358.96 237.9 351.636 230.771C344.36 223.643 340.723 214.146 340.723 202.28V200.229C340.723 192.271 342.261 185.166 345.337 178.916C348.413 172.617 352.759 167.783 358.374 164.414C364.038 160.996 370.483 159.287 377.71 159.287C388.55 159.287 397.07 162.705 403.271 169.541C409.521 176.377 412.646 186.069 412.646 198.618V207.261H362.183C362.866 212.437 364.917 216.587 368.335 219.712C371.802 222.837 376.172 224.399 381.445 224.399C389.6 224.399 395.972 221.445 400.562 215.537L410.962 227.183C407.788 231.675 403.491 235.19 398.071 237.729C392.651 240.22 386.646 241.465 380.054 241.465ZM377.637 176.426C373.438 176.426 370.02 177.842 367.383 180.674C364.795 183.506 363.135 187.559 362.402 192.832H391.846V191.147C391.748 186.46 390.479 182.847 388.037 180.308C385.596 177.72 382.129 176.426 377.637 176.426Z" fill="black"/>
<path d="M218.237 318.478C217.407 329.952 213.159 338.985 205.493 345.577C197.876 352.169 187.817 355.465 175.317 355.465C161.646 355.465 150.879 350.875 143.018 341.695C135.205 332.467 131.299 319.82 131.299 303.756V297.237C131.299 286.983 133.105 277.95 136.719 270.138C140.332 262.325 145.483 256.344 152.173 252.193C158.911 247.994 166.724 245.895 175.61 245.895C187.915 245.895 197.827 249.19 205.347 255.782C212.866 262.374 217.212 271.627 218.384 283.541H196.411C195.874 276.656 193.945 271.676 190.625 268.6C187.354 265.475 182.349 263.912 175.61 263.912C168.286 263.912 162.793 266.549 159.131 271.822C155.518 277.047 153.662 285.177 153.564 296.212V304.269C153.564 315.792 155.298 324.215 158.765 329.537C162.28 334.859 167.798 337.521 175.317 337.521C182.104 337.521 187.158 335.982 190.479 332.906C193.848 329.781 195.776 324.972 196.265 318.478H218.237ZM277.197 354C276.221 352.096 275.513 349.728 275.073 346.896C269.946 352.608 263.281 355.465 255.078 355.465C247.314 355.465 240.869 353.219 235.742 348.727C230.664 344.234 228.125 338.57 228.125 331.734C228.125 323.336 231.226 316.891 237.427 312.398C243.677 307.906 252.686 305.636 264.453 305.587H274.194V301.046C274.194 297.384 273.242 294.454 271.338 292.257C269.482 290.06 266.528 288.961 262.476 288.961C258.911 288.961 256.104 289.815 254.053 291.524C252.051 293.233 251.05 295.577 251.05 298.556H229.883C229.883 293.966 231.299 289.718 234.131 285.812C236.963 281.905 240.967 278.854 246.143 276.656C251.318 274.41 257.129 273.287 263.574 273.287C273.34 273.287 281.079 275.753 286.792 280.685C292.554 285.567 295.435 292.452 295.435 301.339V335.689C295.483 343.209 296.533 348.897 298.584 352.755V354H277.197ZM259.692 339.278C262.817 339.278 265.698 338.595 268.335 337.228C270.972 335.812 272.925 333.932 274.194 331.588V317.965H266.284C255.688 317.965 250.049 321.627 249.365 328.951L249.292 330.196C249.292 332.833 250.22 335.006 252.075 336.715C253.931 338.424 256.47 339.278 259.692 339.278ZM337.036 255.27V274.752H350.586V290.279H337.036V329.83C337.036 332.76 337.598 334.859 338.721 336.129C339.844 337.398 341.992 338.033 345.166 338.033C347.51 338.033 349.585 337.862 351.392 337.521V353.561C347.241 354.83 342.969 355.465 338.574 355.465C323.73 355.465 316.162 347.97 315.869 332.979V290.279H304.297V274.752H315.869V255.27H337.036ZM405.298 332.101C405.298 329.513 404.004 327.486 401.416 326.021C398.877 324.508 394.775 323.165 389.111 321.993C370.264 318.038 360.84 310.03 360.84 297.97C360.84 290.938 363.745 285.079 369.556 280.392C375.415 275.655 383.057 273.287 392.48 273.287C402.539 273.287 410.571 275.655 416.577 280.392C422.632 285.128 425.659 291.28 425.659 298.849H404.492C404.492 295.821 403.516 293.331 401.562 291.378C399.609 289.376 396.558 288.375 392.407 288.375C388.843 288.375 386.084 289.181 384.131 290.792C382.178 292.403 381.201 294.454 381.201 296.944C381.201 299.288 382.3 301.192 384.497 302.657C386.743 304.073 390.503 305.318 395.776 306.393C401.05 307.418 405.493 308.59 409.106 309.908C420.288 314.01 425.879 321.114 425.879 331.222C425.879 338.448 422.778 344.308 416.577 348.8C410.376 353.243 402.368 355.465 392.554 355.465C385.913 355.465 380.005 354.293 374.829 351.949C369.702 349.557 365.674 346.31 362.744 342.208C359.814 338.058 358.35 333.59 358.35 328.805H378.418C378.613 332.564 380.005 335.445 382.593 337.447C385.181 339.449 388.647 340.45 392.993 340.45C397.046 340.45 400.098 339.693 402.148 338.18C404.248 336.617 405.298 334.591 405.298 332.101Z" fill="black"/>
<defs>
<clipPath id="clip0">
<rect width="150" height="150" fill="white" transform="translate(129)"/>
</clipPath>
</defs>
</svg>
