<svg width="567" height="298" viewBox="0 0 567 298" fill="none" xmlns="http://www.w3.org/2000/svg">
<g clip-path="url(#clip0)">
<path d="M111.881 59.1318C108.892 59.1318 106.46 61.5625 106.46 64.551C106.46 67.5397 108.892 69.9704 111.881 69.9704C114.869 69.9704 117.302 67.5394 117.302 64.551C117.302 61.5625 114.869 59.1318 111.881 59.1318Z" fill="black"/>
<path d="M142.759 7.25106C141.596 7.013 140.419 7.62948 139.954 8.72332L132.716 25.7347C132.372 25.7054 132.031 25.6905 131.692 25.6905H40.9999C40.9655 25.6905 40.9297 25.6905 40.8954 25.6905L32.737 6.5242C32.2739 5.4285 31.0984 4.81078 29.9328 5.05193C28.767 5.29 27.9291 6.31551 27.9291 7.50581V95.9966C27.9291 103.205 33.7937 109.067 40.9999 109.067H73.2895C66.4028 113.303 61.7284 120.76 61.3729 129.335C58.9125 131.886 48.6135 141.688 35.2119 142.2C26.2478 142.538 17.6149 138.657 9.49735 130.655C8.51265 129.683 6.92784 129.696 5.95612 130.681C4.98781 131.666 4.99925 133.252 5.98395 134.223C15.1239 143.234 25.0643 147.585 35.4042 147.205C46.913 146.767 56.185 140.578 61.3209 136.233V152.496C61.3209 153.88 62.4442 155 63.8252 155C65.2078 155 66.3295 153.88 66.3295 152.496V130.373C66.3295 122.702 70.6745 116.034 77.0249 112.674V152.493C77.0249 153.877 78.1466 154.997 79.5295 154.997C80.9121 154.997 82.0337 153.877 82.0337 152.493V110.836C83.4244 110.53 84.8639 110.355 86.346 110.355C88.3303 110.355 90.2413 110.657 92.0508 111.193V152.491C92.0508 153.875 93.1725 154.995 94.5551 154.995C95.9377 154.995 97.0594 153.875 97.0594 152.491V113.494C102.642 117.051 106.363 123.279 106.363 130.373V152.493C106.363 153.877 107.484 154.997 108.867 154.997C110.249 154.997 111.371 153.877 111.371 152.493V130.373C111.371 121.364 106.568 113.473 99.4026 109.066H131.692C138.9 109.066 144.763 103.203 144.763 95.995V9.70493C144.762 8.51463 143.924 7.49097 142.759 7.25106ZM60.8105 74.9792C55.0603 74.9792 50.381 70.3015 50.381 64.5513C50.381 58.801 55.0603 54.1233 60.8105 54.1233C66.5611 54.1233 71.24 58.8007 71.24 64.5513C71.24 70.3015 66.5626 74.9792 60.8105 74.9792ZM87.042 101.938C81.5184 101.938 77.0249 97.446 77.0249 91.9205C77.0249 90.5363 78.1466 89.4162 79.5295 89.4162C80.9121 89.4162 82.0337 90.5363 82.0337 91.9205C82.0337 93.7987 83.0852 95.4191 84.6178 96.277C84.5723 96.0828 84.5377 95.8856 84.5377 95.6772V87.6932L79.3434 87.3086C77.9657 87.2057 76.9318 86.0042 77.0314 84.6247C77.1356 83.2437 78.3438 82.22 79.715 82.3127L87.042 82.8556L94.3687 82.3127C95.7791 82.2361 96.9527 83.2468 97.0526 84.6247C97.1518 86.0042 96.1198 87.2057 94.7406 87.3086L89.5459 87.6932V95.6772C89.5459 95.8859 89.5135 96.0828 89.4662 96.277C90.9987 95.4194 92.0502 93.7987 92.0502 91.9205C92.0502 90.5363 93.1719 89.4162 94.5545 89.4162C95.9371 89.4162 97.0588 90.5363 97.0588 91.9205C97.0588 97.446 92.5671 101.938 87.042 101.938ZM111.881 74.9792C106.132 74.9792 101.451 70.3015 101.451 64.5513C101.451 58.801 106.132 54.1233 111.881 54.1233C117.631 54.1233 122.31 58.8007 122.31 64.5513C122.31 70.3015 117.631 74.9792 111.881 74.9792Z" fill="black"/>
<path d="M60.8105 59.1318C57.8221 59.1318 55.3895 61.5625 55.3895 64.551C55.3895 67.5397 57.8221 69.9704 60.8105 69.9704C63.7992 69.9704 66.2315 67.5394 66.2315 64.551C66.2315 61.5625 63.7989 59.1318 60.8105 59.1318Z" fill="black"/>
</g>
<path d="M214.819 111.021C214.819 106.871 213.354 103.697 210.425 101.5C207.495 99.2539 202.222 96.9102 194.604 94.4688C186.987 91.9785 180.957 89.5371 176.514 87.1445C164.404 80.6016 158.35 71.7881 158.35 60.7041C158.35 54.9424 159.961 49.8154 163.184 45.3232C166.455 40.7822 171.118 37.2422 177.173 34.7031C183.276 32.1641 190.112 30.8945 197.681 30.8945C205.298 30.8945 212.085 32.2861 218.042 35.0693C223.999 37.8037 228.613 41.6855 231.885 46.7148C235.205 51.7441 236.865 57.457 236.865 63.8535H214.893C214.893 58.9707 213.354 55.1865 210.278 52.501C207.202 49.7666 202.881 48.3994 197.314 48.3994C191.943 48.3994 187.769 49.5469 184.79 51.8418C181.812 54.0879 180.322 57.0664 180.322 60.7773C180.322 64.2441 182.056 67.1494 185.522 69.4932C189.038 71.8369 194.189 74.0342 200.977 76.085C213.477 79.8447 222.583 84.5078 228.296 90.0742C234.009 95.6406 236.865 102.574 236.865 110.875C236.865 120.104 233.374 127.354 226.392 132.628C219.409 137.853 210.01 140.465 198.193 140.465C189.99 140.465 182.52 138.976 175.781 135.997C169.043 132.97 163.892 128.844 160.327 123.619C156.812 118.395 155.054 112.34 155.054 105.455H177.1C177.1 117.223 184.131 123.106 198.193 123.106C203.418 123.106 207.495 122.057 210.425 119.957C213.354 117.809 214.819 114.83 214.819 111.021ZM321.753 100.108C321.753 112.315 318.97 122.105 313.403 129.479C307.886 136.803 300.415 140.465 290.991 140.465C282.983 140.465 276.514 137.682 271.582 132.115V169.469H250.415V59.752H270.044L270.776 67.5156C275.903 61.3633 282.593 58.2871 290.845 58.2871C300.61 58.2871 308.203 61.9004 313.623 69.127C319.043 76.3535 321.753 86.3145 321.753 99.0098V100.108ZM300.586 98.5703C300.586 91.1973 299.268 85.5088 296.631 81.5049C294.043 77.501 290.259 75.499 285.278 75.499C278.638 75.499 274.072 78.0381 271.582 83.1162V115.562C274.17 120.787 278.784 123.399 285.425 123.399C295.532 123.399 300.586 115.123 300.586 98.5703ZM380.859 139C379.883 137.096 379.175 134.728 378.735 131.896C373.608 137.608 366.943 140.465 358.74 140.465C350.977 140.465 344.531 138.219 339.404 133.727C334.326 129.234 331.787 123.57 331.787 116.734C331.787 108.336 334.888 101.891 341.089 97.3984C347.339 92.9062 356.348 90.6357 368.115 90.5869H377.856V86.0459C377.856 82.3838 376.904 79.4541 375 77.2568C373.145 75.0596 370.19 73.9609 366.138 73.9609C362.573 73.9609 359.766 74.8154 357.715 76.5244C355.713 78.2334 354.712 80.5771 354.712 83.5557H333.545C333.545 78.9658 334.961 74.7178 337.793 70.8115C340.625 66.9053 344.629 63.8535 349.805 61.6562C354.98 59.4102 360.791 58.2871 367.236 58.2871C377.002 58.2871 384.741 60.7529 390.454 65.6846C396.216 70.5674 399.097 77.4521 399.097 86.3389V120.689C399.146 128.209 400.195 133.897 402.246 137.755V139H380.859ZM363.354 124.278C366.479 124.278 369.36 123.595 371.997 122.228C374.634 120.812 376.587 118.932 377.856 116.588V102.965H369.946C359.351 102.965 353.711 106.627 353.027 113.951L352.954 115.196C352.954 117.833 353.882 120.006 355.737 121.715C357.593 123.424 360.132 124.278 363.354 124.278ZM448.315 123.399C452.222 123.399 455.396 122.325 457.837 120.177C460.278 118.028 461.548 115.172 461.646 111.607H481.494C481.445 116.979 479.98 121.91 477.1 126.402C474.219 130.846 470.264 134.312 465.234 136.803C460.254 139.244 454.736 140.465 448.682 140.465C437.354 140.465 428.418 136.876 421.875 129.698C415.332 122.472 412.061 112.511 412.061 99.8154V98.4238C412.061 86.2168 415.308 76.4756 421.802 69.2002C428.296 61.9248 437.207 58.2871 448.535 58.2871C458.447 58.2871 466.382 61.1191 472.339 66.7832C478.345 72.3984 481.396 79.8936 481.494 89.2686H461.646C461.548 85.167 460.278 81.8467 457.837 79.3076C455.396 76.7197 452.173 75.4258 448.169 75.4258C443.237 75.4258 439.502 77.2324 436.963 80.8457C434.473 84.4102 433.228 90.2207 433.228 98.2773V100.475C433.228 108.629 434.473 114.488 436.963 118.053C439.453 121.617 443.237 123.399 448.315 123.399ZM530.054 140.465C518.433 140.465 508.96 136.9 501.636 129.771C494.36 122.643 490.723 113.146 490.723 101.28V99.2295C490.723 91.2705 492.261 84.166 495.337 77.916C498.413 71.6172 502.759 66.7832 508.374 63.4141C514.038 59.9961 520.483 58.2871 527.71 58.2871C538.55 58.2871 547.07 61.7051 553.271 68.541C559.521 75.377 562.646 85.0693 562.646 97.6182V106.261H512.183C512.866 111.437 514.917 115.587 518.335 118.712C521.802 121.837 526.172 123.399 531.445 123.399C539.6 123.399 545.972 120.445 550.562 114.537L560.962 126.183C557.788 130.675 553.491 134.19 548.071 136.729C542.651 139.22 536.646 140.465 530.054 140.465ZM527.637 75.4258C523.438 75.4258 520.02 76.8418 517.383 79.6738C514.795 82.5059 513.135 86.5586 512.402 91.832H541.846V90.1475C541.748 85.46 540.479 81.8467 538.037 79.3076C535.596 76.7197 532.129 75.4258 527.637 75.4258Z" fill="black"/>
<path d="M184.237 225.478C183.407 236.952 179.159 245.985 171.493 252.577C163.876 259.169 153.817 262.465 141.317 262.465C127.646 262.465 116.879 257.875 109.018 248.695C101.205 239.467 97.2988 226.82 97.2988 210.756V204.237C97.2988 193.983 99.1055 184.95 102.719 177.138C106.332 169.325 111.483 163.344 118.173 159.193C124.911 154.994 132.724 152.895 141.61 152.895C153.915 152.895 163.827 156.19 171.347 162.782C178.866 169.374 183.212 178.627 184.384 190.541H162.411C161.874 183.656 159.945 178.676 156.625 175.6C153.354 172.475 148.349 170.912 141.61 170.912C134.286 170.912 128.793 173.549 125.131 178.822C121.518 184.047 119.662 192.177 119.564 203.212V211.269C119.564 222.792 121.298 231.215 124.765 236.537C128.28 241.859 133.798 244.521 141.317 244.521C148.104 244.521 153.158 242.982 156.479 239.906C159.848 236.781 161.776 231.972 162.265 225.478H184.237ZM243.197 261C242.221 259.096 241.513 256.728 241.073 253.896C235.946 259.608 229.281 262.465 221.078 262.465C213.314 262.465 206.869 260.219 201.742 255.727C196.664 251.234 194.125 245.57 194.125 238.734C194.125 230.336 197.226 223.891 203.427 219.398C209.677 214.906 218.686 212.636 230.453 212.587H240.194V208.046C240.194 204.384 239.242 201.454 237.338 199.257C235.482 197.06 232.528 195.961 228.476 195.961C224.911 195.961 222.104 196.815 220.053 198.524C218.051 200.233 217.05 202.577 217.05 205.556H195.883C195.883 200.966 197.299 196.718 200.131 192.812C202.963 188.905 206.967 185.854 212.143 183.656C217.318 181.41 223.129 180.287 229.574 180.287C239.34 180.287 247.079 182.753 252.792 187.685C258.554 192.567 261.435 199.452 261.435 208.339V242.689C261.483 250.209 262.533 255.897 264.584 259.755V261H243.197ZM225.692 246.278C228.817 246.278 231.698 245.595 234.335 244.228C236.972 242.812 238.925 240.932 240.194 238.588V224.965H232.284C221.688 224.965 216.049 228.627 215.365 235.951L215.292 237.196C215.292 239.833 216.22 242.006 218.075 243.715C219.931 245.424 222.47 246.278 225.692 246.278ZM303.036 162.27V181.752H316.586V197.279H303.036V236.83C303.036 239.76 303.598 241.859 304.721 243.129C305.844 244.398 307.992 245.033 311.166 245.033C313.51 245.033 315.585 244.862 317.392 244.521V260.561C313.241 261.83 308.969 262.465 304.574 262.465C289.73 262.465 282.162 254.97 281.869 239.979V197.279H270.297V181.752H281.869V162.27H303.036ZM371.298 239.101C371.298 236.513 370.004 234.486 367.416 233.021C364.877 231.508 360.775 230.165 355.111 228.993C336.264 225.038 326.84 217.03 326.84 204.97C326.84 197.938 329.745 192.079 335.556 187.392C341.415 182.655 349.057 180.287 358.48 180.287C368.539 180.287 376.571 182.655 382.577 187.392C388.632 192.128 391.659 198.28 391.659 205.849H370.492C370.492 202.821 369.516 200.331 367.562 198.378C365.609 196.376 362.558 195.375 358.407 195.375C354.843 195.375 352.084 196.181 350.131 197.792C348.178 199.403 347.201 201.454 347.201 203.944C347.201 206.288 348.3 208.192 350.497 209.657C352.743 211.073 356.503 212.318 361.776 213.393C367.05 214.418 371.493 215.59 375.106 216.908C386.288 221.01 391.879 228.114 391.879 238.222C391.879 245.448 388.778 251.308 382.577 255.8C376.376 260.243 368.368 262.465 358.554 262.465C351.913 262.465 346.005 261.293 340.829 258.949C335.702 256.557 331.674 253.31 328.744 249.208C325.814 245.058 324.35 240.59 324.35 235.805H344.418C344.613 239.564 346.005 242.445 348.593 244.447C351.181 246.449 354.647 247.45 358.993 247.45C363.046 247.45 366.098 246.693 368.148 245.18C370.248 243.617 371.298 241.591 371.298 239.101Z" fill="black"/>
<defs>
<clipPath id="clip0">
<rect width="150" height="150" fill="white" transform="translate(0 5)"/>
</clipPath>
</defs>
</svg>
